<svg width="28" height="28" viewBox="0 0 28 28" fill="none" xmlns="http://www.w3.org/2000/svg">
<path d="M13.9999 25.6667C12.4678 25.6667 10.9507 25.3649 9.53528 24.7786C8.11981 24.1923 6.83369 23.3329 5.75034 22.2496C3.56242 20.0617 2.33325 17.0942 2.33325 14C2.33325 10.9058 3.56242 7.93836 5.75034 5.75043C7.93826 3.56251 10.9057 2.33334 13.9999 2.33334C20.4166 2.33334 25.6666 7.00001 25.6666 12.8333C25.6666 14.6899 24.9291 16.4703 23.6163 17.7831C22.3036 19.0958 20.5231 19.8333 18.6666 19.8333H16.5666C16.2166 19.8333 15.9833 20.0667 15.9833 20.4167C15.9833 20.5333 16.0999 20.65 16.0999 20.7667C16.5666 21.35 16.7999 22.05 16.7999 22.75C16.9166 24.3833 15.6333 25.6667 13.9999 25.6667ZM13.9999 4.66668C11.5246 4.66668 9.1506 5.65001 7.40026 7.40035C5.64992 9.15069 4.66659 11.5247 4.66659 14C4.66659 16.4754 5.64992 18.8493 7.40026 20.5997C9.1506 22.35 11.5246 23.3333 13.9999 23.3333C14.3499 23.3333 14.5833 23.1 14.5833 22.75C14.5833 22.5167 14.4666 22.4 14.4666 22.2833C13.9999 21.7 13.7666 21.1167 13.7666 20.4167C13.7666 18.7833 15.0499 17.5 16.6833 17.5H18.6666C19.9043 17.5 21.0912 17.0083 21.9664 16.1332C22.8416 15.258 23.3333 14.071 23.3333 12.8333C23.3333 8.28334 19.1333 4.66668 13.9999 4.66668ZM7.58325 11.6667C8.51659 11.6667 9.33325 12.4833 9.33325 13.4167C9.33325 14.35 8.51659 15.1667 7.58325 15.1667C6.64992 15.1667 5.83325 14.35 5.83325 13.4167C5.83325 12.4833 6.64992 11.6667 7.58325 11.6667ZM11.0833 7.00001C12.0166 7.00001 12.8333 7.81668 12.8333 8.75001C12.8333 9.68334 12.0166 10.5 11.0833 10.5C10.1499 10.5 9.33325 9.68334 9.33325 8.75001C9.33325 7.81668 10.1499 7.00001 11.0833 7.00001ZM16.9166 7.00001C17.8499 7.00001 18.6666 7.81668 18.6666 8.75001C18.6666 9.68334 17.8499 10.5 16.9166 10.5C15.9833 10.5 15.1666 9.68334 15.1666 8.75001C15.1666 7.81668 15.9833 7.00001 16.9166 7.00001ZM20.4166 11.6667C21.3499 11.6667 22.1666 12.4833 22.1666 13.4167C22.1666 14.35 21.3499 15.1667 20.4166 15.1667C19.4833 15.1667 18.6666 14.35 18.6666 13.4167C18.6666 12.4833 19.4833 11.6667 20.4166 11.6667Z" fill="#4682B4"/>
</svg>
