<svg width="28" height="28" viewBox="0 0 28 28" fill="none" xmlns="http://www.w3.org/2000/svg">
<path d="M7.83993 10.6334L3.79962 14L7.83993 17.3666C7.97393 17.4764 8.08486 17.6116 8.16633 17.7645C8.24779 17.9174 8.29818 18.0849 8.31459 18.2574C8.331 18.4299 8.31311 18.6039 8.26194 18.7694C8.21077 18.9349 8.12734 19.0886 8.01647 19.2217C7.90559 19.3549 7.76945 19.4647 7.61591 19.5449C7.46237 19.6252 7.29447 19.6742 7.12188 19.6893C6.94929 19.7043 6.77543 19.685 6.61033 19.6325C6.44523 19.58 6.29216 19.4954 6.15993 19.3834L0.909934 15.0084C0.762072 14.8853 0.643105 14.7311 0.561463 14.5568C0.47982 14.3825 0.4375 14.1925 0.4375 14C0.4375 13.8076 0.47982 13.6175 0.561463 13.4432C0.643105 13.2689 0.762072 13.1147 0.909934 12.9916L6.15993 8.61657C6.42776 8.39708 6.77148 8.29232 7.1162 8.32512C7.46093 8.35793 7.77872 8.52563 8.00034 8.7917C8.22197 9.05776 8.32947 9.40063 8.29942 9.74561C8.26938 10.0906 8.10422 10.4097 7.83993 10.6334ZM27.0899 12.9916L21.8399 8.61657C21.7077 8.50463 21.5546 8.41998 21.3895 8.36749C21.2244 8.315 21.0506 8.29571 20.878 8.31074C20.7054 8.32578 20.5375 8.37483 20.384 8.45507C20.2304 8.53531 20.0943 8.64515 19.9834 8.77827C19.8725 8.91138 19.7891 9.06513 19.7379 9.23064C19.6868 9.39615 19.6689 9.57016 19.6853 9.74262C19.7017 9.91509 19.7521 10.0826 19.8335 10.2355C19.915 10.3884 20.0259 10.5236 20.1599 10.6334L24.2002 14L20.1599 17.3666C20.0259 17.4764 19.915 17.6116 19.8335 17.7645C19.7521 17.9174 19.7017 18.0849 19.6853 18.2574C19.6689 18.4299 19.6868 18.6039 19.7379 18.7694C19.7891 18.9349 19.8725 19.0886 19.9834 19.2217C20.0943 19.3549 20.2304 19.4647 20.384 19.5449C20.5375 19.6252 20.7054 19.6742 20.878 19.6893C21.0506 19.7043 21.2244 19.685 21.3895 19.6325C21.5546 19.58 21.7077 19.4954 21.8399 19.3834L27.0899 15.0084C27.2378 14.8853 27.3568 14.7311 27.4384 14.5568C27.52 14.3825 27.5624 14.1925 27.5624 14C27.5624 13.8076 27.52 13.6175 27.4384 13.4432C27.3568 13.2689 27.2378 13.1147 27.0899 12.9916ZM17.9484 3.14126C17.7864 3.08234 17.6143 3.05591 17.4421 3.06349C17.2699 3.07108 17.1008 3.11251 16.9446 3.18544C16.7884 3.25837 16.6481 3.36135 16.5317 3.48852C16.4153 3.61568 16.3251 3.76453 16.2662 3.92657L9.26619 23.1766C9.14753 23.5036 9.1636 23.8644 9.31086 24.1797C9.45811 24.4949 9.72451 24.7388 10.0515 24.8577C10.1951 24.9107 10.3469 24.9377 10.4999 24.9375C10.7694 24.9376 11.0324 24.8547 11.2531 24.7001C11.4738 24.5455 11.6416 24.3267 11.7337 24.0734L18.7337 4.82345C18.7926 4.66143 18.819 4.48939 18.8114 4.31716C18.8039 4.14493 18.7624 3.97588 18.6895 3.81967C18.6166 3.66346 18.5136 3.52314 18.3864 3.40674C18.2593 3.29033 18.1104 3.20012 17.9484 3.14126Z" fill="#4682B4"/>
</svg>
