<svg width="25" height="22" viewBox="0 0 25 22" fill="none" xmlns="http://www.w3.org/2000/svg">
<path d="M14.7501 6.33333H13.0001V12.1667L17.9934 15.13L18.8334 13.7183L14.7501 11.2917V6.33333ZM14.1667 0.5C11.382 0.5 8.71126 1.60625 6.74213 3.57538C4.77299 5.54451 3.66675 8.21523 3.66675 11H0.166748L4.78675 15.7017L9.50008 11H6.00008C6.00008 8.83407 6.8605 6.75684 8.39204 5.22529C9.92359 3.69375 12.0008 2.83333 14.1667 2.83333C16.3327 2.83333 18.4099 3.69375 19.9415 5.22529C21.473 6.75684 22.3334 8.83407 22.3334 11C22.3334 13.1659 21.473 15.2432 19.9415 16.7747C18.4099 18.3063 16.3327 19.1667 14.1667 19.1667C11.9151 19.1667 9.87341 18.245 8.40341 16.7633L6.74675 18.42C7.71696 19.4005 8.87281 20.1779 10.1468 20.7067C11.4208 21.2355 12.7874 21.5052 14.1667 21.5C16.9515 21.5 19.6222 20.3938 21.5914 18.4246C23.5605 16.4555 24.6667 13.7848 24.6667 11C24.6667 8.21523 23.5605 5.54451 21.5914 3.57538C19.6222 1.60625 16.9515 0.5 14.1667 0.5Z" fill="#4682B4"/>
</svg>
