<svg width="28" height="28" viewBox="0 0 28 28" fill="none" xmlns="http://www.w3.org/2000/svg">
<path d="M14.0001 25.0833C12.4251 24.0917 9.56675 23.3333 7.58342 23.3333C5.65841 23.3333 3.67508 23.6833 2.04175 24.5583C1.92508 24.6167 1.86675 24.6167 1.75008 24.6167C1.45841 24.6167 1.16675 24.325 1.16675 24.0333V7C1.86675 6.475 2.62508 6.125 3.50008 5.83333C4.79508 5.425 6.21842 5.25 7.58342 5.25C9.85842 5.25 12.3084 5.71667 14.0001 7C15.6917 5.71667 18.1417 5.25 20.4167 5.25C21.7817 5.25 23.2051 5.425 24.5001 5.83333C25.3751 6.125 26.1334 6.475 26.8334 7V24.0333C26.8334 24.325 26.5417 24.6167 26.2501 24.6167C26.1334 24.6167 26.0751 24.6167 25.9584 24.5583C24.3251 23.6833 22.3417 23.3333 20.4167 23.3333C18.4334 23.3333 15.5751 24.0917 14.0001 25.0833ZM12.8334 8.75C11.2467 8.05 9.14675 7.58333 7.58342 7.58333C6.18341 7.58333 4.78342 7.75833 3.50008 8.16667V21.5833C4.78342 21.175 6.18341 21 7.58342 21C9.14675 21 11.2467 21.4667 12.8334 22.1667V8.75ZM15.1667 22.1667C16.7534 21.4667 18.8534 21 20.4167 21C21.8167 21 23.2167 21.175 24.5001 21.5833V8.16667C23.2167 7.75833 21.8167 7.58333 20.4167 7.58333C18.8534 7.58333 16.7534 8.05 15.1667 8.75V22.1667Z" fill="#4682B4"/>
</svg>
