<svg width="28" height="28" viewBox="0 0 28 28" fill="none" xmlns="http://www.w3.org/2000/svg">
<path d="M12.25 24.5C12.25 24.5 10.5 24.5 10.5 22.75C10.5 21 12.25 15.75 19.25 15.75C26.25 15.75 28 21 28 22.75C28 24.5 26.25 24.5 26.25 24.5H12.25ZM19.25 14C20.6424 14 21.9777 13.4469 22.9623 12.4623C23.9469 11.4777 24.5 10.1424 24.5 8.75C24.5 7.35761 23.9469 6.02226 22.9623 5.03769C21.9777 4.05312 20.6424 3.5 19.25 3.5C17.8576 3.5 16.5223 4.05312 15.5377 5.03769C14.5531 6.02226 14 7.35761 14 8.75C14 10.1424 14.5531 11.4777 15.5377 12.4623C16.5223 13.4469 17.8576 14 19.25 14ZM9.128 24.5C8.86869 23.9536 8.73932 23.3547 8.75 22.75C8.75 20.3787 9.94 17.9375 12.138 16.24C11.0411 15.9013 9.89796 15.7359 8.75 15.75C1.75 15.75 0 21 0 22.75C0 24.5 1.75 24.5 1.75 24.5H9.128ZM7.875 14C9.03532 14 10.1481 13.5391 10.9686 12.7186C11.7891 11.8981 12.25 10.7853 12.25 9.625C12.25 8.46468 11.7891 7.35188 10.9686 6.53141C10.1481 5.71094 9.03532 5.25 7.875 5.25C6.71468 5.25 5.60188 5.71094 4.78141 6.53141C3.96094 7.35188 3.5 8.46468 3.5 9.625C3.5 10.7853 3.96094 11.8981 4.78141 12.7186C5.60188 13.5391 6.71468 14 7.875 14Z" fill="#4682B4"/>
</svg>
