<svg width="28" height="28" viewBox="0 0 28 28" fill="none" xmlns="http://www.w3.org/2000/svg">
<path d="M24.1617 8.21332C23.765 8.60999 23.38 8.99499 23.3683 9.37999C23.3333 9.75332 23.73 10.1383 24.1033 10.5C24.6633 11.0833 25.2117 11.6083 25.1883 12.18C25.165 12.7517 24.57 13.3467 23.975 13.93L19.1567 18.76L17.5 17.1033L22.4583 12.1567L21.3383 11.0367L19.6817 12.6817L15.3067 8.30665L19.7867 3.83832C20.2417 3.38332 21 3.38332 21.4317 3.83832L24.1617 6.56832C24.6167 6.99999 24.6167 7.75832 24.1617 8.21332ZM3.5 20.125L14.6533 8.95999L19.0283 13.335L7.875 24.5H3.5V20.125Z" fill="#4682B4"/>
</svg>
