<svg width="18" height="20" viewBox="0 0 18 20" fill="none" xmlns="http://www.w3.org/2000/svg">
<path d="M17.7957 14.6102C17.2753 13.691 16.5018 11.0899 16.5018 7.69264C16.5018 5.65242 15.7115 3.69577 14.3047 2.25312C12.8979 0.810472 10.9899 0 9.00047 0C7.011 0 5.10302 0.810472 3.69625 2.25312C2.28949 3.69577 1.49917 5.65242 1.49917 7.69264C1.49917 11.0909 0.724663 13.691 0.204261 14.6102C0.0713668 14.844 0.000914497 15.1095 8.84306e-06 15.38C-0.000896811 15.6505 0.0677764 15.9165 0.199103 16.1512C0.330429 16.3858 0.519765 16.5808 0.748016 16.7164C0.976267 16.8521 1.23536 16.9236 1.49917 16.9238H5.32577C5.49884 17.7923 5.95909 18.5728 6.62868 19.1333C7.29828 19.6938 8.13611 20 9.00047 20C9.86483 20 10.7027 19.6938 11.3723 19.1333C12.0418 18.5728 12.5021 17.7923 12.6752 16.9238H16.5018C16.7655 16.9234 17.0245 16.8518 17.2526 16.7161C17.4807 16.5804 17.6699 16.3854 17.8011 16.1508C17.9323 15.9161 18.0009 15.6502 18 15.3798C17.999 15.1093 17.9286 14.8439 17.7957 14.6102ZM9.00047 18.4623C8.53522 18.4622 8.08145 18.3142 7.70162 18.0386C7.32178 17.7631 7.03456 17.3736 6.87948 16.9238H11.1215C10.9664 17.3736 10.6792 17.7631 10.2993 18.0386C9.91949 18.3142 9.46572 18.4622 9.00047 18.4623ZM1.49917 15.3853C2.22117 14.1121 2.99943 11.162 2.99943 7.69264C2.99943 6.06047 3.63168 4.49515 4.75709 3.34103C5.88251 2.18691 7.40889 1.53853 9.00047 1.53853C10.592 1.53853 12.1184 2.18691 13.2438 3.34103C14.3693 4.49515 15.0015 6.06047 15.0015 7.69264C15.0015 11.1591 15.7779 14.1093 16.5018 15.3853H1.49917Z" fill="#196CE9"/>
</svg>
