<svg width="20" height="20" viewBox="0 0 20 20" fill="none" xmlns="http://www.w3.org/2000/svg">
<g clip-path="url(#clip0_745_254)">
<path d="M8.5 1C7.01664 1 5.56659 1.43987 4.33323 2.26398C3.09986 3.08809 2.13856 4.25943 1.57091 5.62987C1.00325 7.00032 0.854725 8.50832 1.14411 9.96318C1.4335 11.418 2.14781 12.7544 3.1967 13.8033C4.2456 14.8522 5.58197 15.5665 7.03683 15.8559C8.49168 16.1453 9.99968 15.9967 11.3701 15.4291C12.7406 14.8614 13.9119 13.9001 14.736 12.6668C15.5601 11.4334 16 9.98336 16 8.5C15.9999 6.51091 15.2097 4.60333 13.8032 3.19684C12.3967 1.79034 10.4891 1.00013 8.5 1Z" stroke="#196CE9" stroke-width="1.5" stroke-miterlimit="10"/>
<path d="M14 14L19 19" stroke="#196CE9" stroke-width="1.5" stroke-miterlimit="10" stroke-linecap="round"/>
</g>
<defs>
<clipPath id="clip0_745_254">
<rect width="20" height="20" fill="white"/>
</clipPath>
</defs>
</svg>
