<svg width="20" height="20" viewBox="0 0 20 20" fill="none" xmlns="http://www.w3.org/2000/svg">
<path d="M3 19V17.875C3 15.7864 3.79018 13.7834 5.1967 12.3065C6.60322 10.8297 8.51088 10 10.5 10M10.5 10C12.4891 10 14.3968 10.8297 15.8033 12.3065C17.2098 13.7834 18 15.7864 18 17.875V19M10.5 10C11.6366 10 12.7267 9.52589 13.5305 8.68198C14.3342 7.83807 14.7857 6.69347 14.7857 5.5C14.7857 4.30653 14.3342 3.16193 13.5305 2.31802C12.7267 1.47411 11.6366 1 10.5 1C9.36336 1 8.27327 1.47411 7.46954 2.31802C6.66581 3.16193 6.21429 4.30653 6.21429 5.5C6.21429 6.69347 6.66581 7.83807 7.46954 8.68198C8.27327 9.52589 9.36336 10 10.5 10Z" stroke="#196CE9" stroke-width="1.5" stroke-linecap="round" stroke-linejoin="round"/>
</svg>
