<svg width="237" height="32" viewBox="0 0 237 32" fill="none" xmlns="http://www.w3.org/2000/svg">
<rect x="204.728" width="32.2723" height="32" rx="5" fill="white"/>
<path fill-rule="evenodd" clip-rule="evenodd" d="M220.117 5.26469C220.47 5.08202 220.891 5.08202 221.244 5.26469L232.291 10.981V22.3666C232.291 22.8165 232.039 23.229 231.637 23.4372L220.681 29.1064L209.725 23.4372C209.323 23.229 209.07 22.8165 209.07 22.3666V10.981L220.117 5.26469ZM230.366 11.347L220.681 6.33523L210.995 11.347L220.681 16.3587L230.366 11.347ZM231.073 12.3431L221.29 17.4057L221.29 27.4293L231.073 22.3666V12.3431ZM220.072 27.4293L220.072 17.4057L210.288 12.3431V22.3666L220.072 27.4293Z" fill="#196CE9"/>
<path fill-rule="evenodd" clip-rule="evenodd" d="M220.751 1.36221L212.382 5.69292L220.751 10.0236L229.121 5.69292L220.751 1.36221ZM230.155 6.22819C230.155 6.22807 230.154 6.22794 230.154 6.22781L230.155 6.22819ZM221.033 0.145896L230.718 5.15765C231.155 5.3834 231.155 6.00244 230.718 6.22819L221.033 11.2399C220.856 11.3313 220.646 11.3313 220.47 11.2399L210.784 6.22819C210.348 6.00244 210.348 5.3834 210.784 5.15765L220.47 0.145897C220.646 0.0545581 220.856 0.0545578 221.033 0.145896Z" fill="#196CE9"/>
<path fill-rule="evenodd" clip-rule="evenodd" d="M235.782 16.914L227.216 21.3464V30.0078L235.782 25.5754V16.914ZM237 15.9178V25.9413C237 26.1663 236.874 26.3725 236.673 26.4766L226.889 31.5392C226.484 31.749 225.999 31.4574 225.999 31.004V20.9804C225.999 20.7555 226.125 20.5492 226.326 20.4452L236.109 15.3826C236.515 15.1728 237 15.4644 237 15.9178Z" fill="#196CE9"/>
<path fill-rule="evenodd" clip-rule="evenodd" d="M214.511 30.0078L214.511 21.3464L205.945 16.914V25.5754L214.511 30.0078ZM214.838 31.5392L205.055 26.4766C204.854 26.3725 204.728 26.1663 204.728 25.9413V15.9178C204.728 15.4644 205.213 15.1728 205.618 15.3826L215.402 20.4452C215.603 20.5492 215.729 20.7555 215.729 20.9804L215.729 31.004C215.729 31.4574 215.244 31.749 214.838 31.5392Z" fill="#196CE9"/>
<path d="M9.24 7.92874H12.3L15.3 19.5687L17.94 7.92874H21.28L17.18 23.7487H13.72L10.78 12.3887L7.84 23.7487H4.36L0.26 7.92874H3.6L6.26 19.5687L9.24 7.92874ZM26.003 7.92874V23.7487H22.723V7.92874H26.003ZM27.428 10.6687V7.92874H39.108V10.6687H34.908V23.7487H31.608V10.6687H27.428ZM48.6555 23.7487V17.0087H43.8155V23.7487H40.5355V7.92874H43.8155V14.2687H48.6555V7.92874H51.9555V23.7487H48.6555ZM69.6239 23.7487H66.9039L63.3839 14.5287V23.7487H60.1839V7.92874H63.5239L68.2639 20.3287L73.0039 7.92874H76.3439V23.7487H73.1439V14.5287L69.6239 23.7487ZM81.9795 7.92874V23.7487H78.6995V7.92874H81.9795ZM93.1445 15.8287C93.1445 11.7687 92.2245 10.6287 90.0045 10.6287H87.6045V21.0687H90.0045C92.2245 21.0687 93.1445 19.9087 93.1445 15.8287ZM90.2045 23.7487H84.3045V7.92874H90.2045C95.4045 7.92874 96.4245 11.6087 96.4245 15.8287C96.4245 20.0887 95.4045 23.7487 90.2045 23.7487ZM107.285 15.8287C107.285 11.7687 106.365 10.6287 104.145 10.6287H101.745V21.0687H104.145C106.365 21.0687 107.285 19.9087 107.285 15.8287ZM104.345 23.7487H98.4452V7.92874H104.345C109.545 7.92874 110.565 11.6087 110.565 15.8287C110.565 20.0887 109.545 23.7487 104.345 23.7487ZM112.606 23.7487V7.92874H115.886V21.0087H122.526V23.7487H112.606ZM123.993 23.7487V7.92874H133.813V10.6687H127.273V14.2687H132.993V17.0087H127.273V21.0087H133.913V23.7487H123.993ZM143.908 7.92874H146.968L149.968 19.5687L152.608 7.92874H155.948L151.848 23.7487H148.388L145.448 12.3887L142.508 23.7487H139.028L134.928 7.92874H138.268L140.928 19.5687L143.908 7.92874ZM168.94 23.7487H165.58L164.72 20.7087H159.4L158.54 23.7487H155.18L160.24 7.92874H163.88L168.94 23.7487ZM162.06 11.3087L160.14 18.0287H163.96L162.06 11.3087ZM178.481 22.3287L178.361 20.3287C178.261 18.7287 177.621 18.1287 175.941 18.1287H173.581V23.7487H170.301V7.92874H176.781C180.141 7.92874 181.901 9.74874 181.901 12.7687C181.901 14.8687 180.941 16.2487 179.081 16.7487C180.801 16.9887 181.501 18.0287 181.621 20.1087L181.761 22.3087C181.801 22.9087 181.901 23.3887 182.061 23.7487H178.741C178.601 23.4087 178.521 22.8687 178.481 22.3287ZM173.581 15.3887H176.201C177.701 15.3887 178.581 14.7687 178.581 13.0287C178.581 11.3087 177.701 10.6687 176.201 10.6687H173.581V15.3887ZM183.993 23.7487V7.92874H193.813V10.6687H187.273V14.2687H192.993V17.0087H187.273V21.0087H193.913V23.7487H183.993Z" fill="#196CE9"/>
</svg>
